<svg xmlns="http://www.w3.org/2000/svg" shape-rendering="geometricPrecision" text-rendering="geometricPrecision" image-rendering="optimizeQuality" fill-rule="evenodd" clip-rule="evenodd" viewBox="0 0 394 511.98"><path fill="#3E7D52" d="M158.912 88.115c-7.903-23.315-15.02-46.892-21.026-70.838 22.398-24.583 108.964-21.316 133.86-.384l-23.05 54.803c12.396-16.286 16.563-22.97 23.958-32.043a71.446 71.446 0 018.787 6.814c6.557 5.936 12.412 12.495 13.597 21.638.768 5.929-.927 11.952-6.203 18.111l-52.884 61.595c-6.807-1.116-13.459-2.75-19.914-5.044 2.999-7.058 6.616-14.823 9.615-21.882l-19.253 20.795c-20.058-4.232-36.188-1.707-51.219 6.242l-53.632-64.366c-3.186-3.839-4.636-7.678-4.624-11.517.051-15.559 23.218-28.987 35.396-34.07l26.592 50.146z"/><path fill="#366F49" d="M139.295 22.806l-1.408-5.53C143 11.665 151.46 7.507 161.763 4.679c5.995 22.606 12.85 44.928 20.344 67.037l-29.499-55.63c-3.764 1.569-8.476 3.862-13.313 6.72zm109.086 110.528l-12.431 14.478c-6.806-1.117-13.459-2.75-19.912-5.045 1.85-4.358 3.936-8.983 5.968-13.548 4.105.354 8.356.988 12.779 1.921l21.364-23.07c-3.329 7.831-7.343 16.447-10.667 24.276.963.343 1.929.672 2.899.988zm-30.215-4.365l-11.768 12.711c-20.057-4.231-36.186-1.706-51.217 6.243l-53.633-64.368c-3.185-3.839-4.636-7.676-4.623-11.516.03-9.258 8.247-17.761 17.463-24.201-.668 1.974-1.042 3.993-1.049 6.045-.013 4.259 1.595 8.516 5.128 12.775l59.5 71.407c12.315-6.511 25.294-9.743 40.199-9.096z"/><path fill="#3E7D52" d="M227.639 204.409l-10.467-47.871c44.832 8.338 116.691 99.534 139.911 140.998 11.852 21.164 22.232 44.48 30.731 70.545 16.931 63.08.622 122.093-67.807 135.838-42.877 8.614-122.838 9.224-167.93 6.891-48.476-2.509-123.494-2.432-143.09-52.204-31.628-80.338 26.319-176.045 79.155-234.623 6.952-7.708 14.141-14.892 21.579-21.522 19.219-16.91 39.943-36.976 64.682-45.319l-23.895 44.495 34.705-46.011h18.288l24.138 48.783z"/><path fill="#499560" d="M227.64 204.408l-10.467-47.871c100.985 37.366 274.435 303.922 75.77 306.108-337.547 3.716-272.661-41.47-183.221-260.184 19.219-16.909 39.944-36.976 64.681-45.32l-23.896 44.496 34.707-46.01h18.287l24.139 48.781z"/><path fill="#3E7D52" d="M227.64 204.408l-4.535-20.74c78.872 60.049 179.837 226.097 103.746 274.941-9.691 2.5-20.964 2.775-33.908 4.036-342.946 33.418-276.078-22.116-183.221-260.184 12.559-11.05 25.761-23.448 40.305-33.041l-22.496 41.89 34.707-46.009h7.782l-19.513 36.336 27.41-36.336h2.608l24.139 48.78-10.467-47.871c6.331 2.637 13.063 6.403 20.031 11.094l13.412 27.104z"/><circle fill="#68BE7C" transform="scale(24.9353) rotate(-61.974 15.208 .304)" r="3.937"/><path fill="#3E7D52" fill-rule="nonzero" d="M207.181 344.632l-2.702 11.273a4.998 4.998 0 01-4.858 3.839l-10.591.023c1.858 1.332 4.361 1.997 7.505 1.997 4.097 0 8.063-.66 11.877-1.974 3.88-1.337 7.631-3.347 11.235-6.016a5.002 5.002 0 017.978 4.016l.017 24.063a5.02 5.02 0 01-2.502 4.343c-3.726 2.494-7.823 4.375-12.284 5.633-4.517 1.275-9.373 1.917-14.557 1.917-8.144 0-15.319-.958-21.515-2.867-6.433-1.981-11.781-4.999-16.022-9.039-4.004-3.824-7.26-7.911-9.757-12.258a45.137 45.137 0 01-4.213-9.815h-7.745a5.018 5.018 0 01-4.732-6.688l2.953-11.349a4.968 4.968 0 01.74-1.61 5.016 5.016 0 01-2.108-5.948l2.955-11.349a5.002 5.002 0 014.84-3.745l3.253-.018c3.299-10.369 8.829-18.348 16.584-23.926 8.576-6.173 19.683-9.259 33.311-9.259 4.515 0 9.079.612 13.685 1.83 4.499 1.19 9.043 2.982 13.616 5.368a5.001 5.001 0 012.538 5.622l-5.809 23.405a5.004 5.004 0 01-8.245 2.485c-1.527-1.395-3.061-2.578-4.605-3.541a4.996 4.996 0 011.021 3.033 5 5 0 01-.278 1.648l-2.702 11.273a4.965 4.965 0 01-.839 1.81 5.013 5.013 0 011.956 5.824zM204.1 319.06a18.003 18.003 0 00-6.44-1.203c-2.348 0-4.404.402-6.162 1.203H204.1z"/><path fill="#fff" fill-rule="nonzero" d="M202.441 342.983l-2.821 11.767h-19.611c2.534 8.02 8.065 12.031 16.527 12.031 9.298 0 18.002-2.997 26.089-8.99v24.062c-6.721 4.583-14.83 6.875-24.327 6.875-15.358 0-26.728-3.504-34.088-10.511-7.338-7.007-11.832-14.829-13.486-23.467h-11.678l3.063-11.767h7.14c-.089-.639-.133-1.785-.133-3.415 0-1.719.044-2.953.133-3.724h-8.616l3.063-11.767h7.028c5.597-22.123 20.978-33.184 46.12-33.184 8.219 0 16.548 2.203 24.987 6.61l-5.817 23.401c-5.861-5.376-11.987-8.065-18.355-8.065-8.351 0-14.014 3.746-16.945 11.238h23.313l-2.82 11.767h-22.74c-.089.859-.133 2.093-.133 3.724v3.415h24.107z"/></svg>